<svg xmlns="http://www.w3.org/2000/svg" xmlns:xlink="http://www.w3.org/1999/xlink" version="1.1" x="0px" y="0px" viewBox="0 0 90 90" enable-background="new 0 0 90 90" xml:space="preserve"><path d="M35,30.3c0.3,0.4,0.6,0.7,0.9,1.1c2.3,2.5,5.5,4.1,9.2,4.1l0,0c3.6,0,6.9-1.6,9.2-4.1c0.3-0.3,0.6-0.7,0.9-1.1  c1.2-1.7,2.1-3.8,2.3-6c0-0.5,0.1-0.9,0.1-1.4c0,0,0,0,0,0c0-2.9-0.8-4.6-1.5-5.4c-2-3.1-8.6-3.3-10.6-3.3c-0.2,0-0.3,0-0.3,0  c-6.7,0-9.6,2.1-10.6,3l-0.1,0.1c-0.2,0.2-0.2,0.3-0.2,0.3c-0.7,0.9-1.5,2.5-1.5,5.5c0,0,0,0,0,0c0,0.5,0,0.9,0.1,1.4  C32.9,26.5,33.7,28.6,35,30.3z M33.5,22.9c0-2.8,0.8-4.3,1.3-4.9c0,0,0.1-0.1,0.2-0.2l0.1-0.1c0.7-0.6,3.4-2.7,9.9-2.7  c0,0,0.1,0,0.3,0c1.3,0,8.1,0.1,9.9,2.9l0,0c0.5,0.6,1.3,2.1,1.3,4.9c0,0,0,0,0,0c0,0.5,0,0.9-0.1,1.4c-0.2,2.1-1,4-2.2,5.6  c-0.3,0.4-0.6,0.7-0.9,1.1c-2.1,2.2-5.1,3.6-8.3,3.6h0c-3.3,0-6.2-1.4-8.3-3.6c-0.3-0.3-0.6-0.7-0.9-1.1c-1.2-1.6-2-3.5-2.2-5.6  C33.5,23.9,33.5,23.4,33.5,22.9C33.5,22.9,33.5,22.9,33.5,22.9z M36.4,54.2c-0.5,0-0.8-0.4-0.8-0.8c0-0.5,0.4-0.8,0.8-0.8  s0.8,0.4,0.8,0.8C37.2,53.8,36.8,54.2,36.4,54.2z M54.4,53.4c0,0.5-0.4,0.8-0.8,0.8c-0.5,0-0.8-0.4-0.8-0.8c0-0.5,0.4-0.8,0.8-0.8  C54.1,52.5,54.4,52.9,54.4,53.4z M44.1,44.8c0-0.5,0.4-0.8,0.8-0.8c0.5,0,0.8,0.4,0.8,0.8c0,0.5-0.4,0.8-0.8,0.8  C44.5,45.6,44.1,45.2,44.1,44.8z M45.8,62c0,0.5-0.4,0.8-0.8,0.8c-0.5,0-0.8-0.4-0.8-0.8c0-0.5,0.4-0.8,0.8-0.8  C45.4,61.2,45.8,61.5,45.8,62z M38.2,57.3c0.2,0.4,0.1,0.9-0.3,1.1c-0.1,0.1-0.3,0.1-0.4,0.1c-0.3,0-0.6-0.2-0.7-0.4  c-0.1-0.2-0.1-0.4-0.1-0.6c0.1-0.2,0.2-0.4,0.4-0.5C37.5,56.7,38,56.9,38.2,57.3z M51.7,49.5c-0.1-0.2-0.1-0.4-0.1-0.6  c0.1-0.2,0.2-0.4,0.4-0.5c0.4-0.2,0.9-0.1,1.1,0.3c0.2,0.4,0.1,0.9-0.3,1.1c-0.1,0.1-0.3,0.1-0.4,0.1C52.1,49.9,51.9,49.7,51.7,49.5  z M39.9,46.4c-0.2-0.4-0.1-0.9,0.3-1.1c0.4-0.2,0.9-0.1,1.1,0.3c0.1,0.2,0.1,0.4,0.1,0.6c-0.1,0.2-0.2,0.4-0.4,0.5  c-0.1,0.1-0.3,0.1-0.4,0.1C40.3,46.8,40,46.6,39.9,46.4z M50,60.5c0.1,0.2,0.1,0.4,0.1,0.6c-0.1,0.2-0.2,0.4-0.4,0.5  c-0.1,0.1-0.3,0.1-0.4,0.1c-0.3,0-0.6-0.2-0.7-0.4c-0.1-0.2-0.1-0.4-0.1-0.6c0.1-0.2,0.2-0.4,0.4-0.5C49.2,59.9,49.7,60.1,50,60.5z   M41.4,61.3c-0.1,0.3-0.4,0.4-0.7,0.4c-0.1,0-0.3,0-0.4-0.1c-0.2-0.1-0.3-0.3-0.4-0.5c-0.1-0.2,0-0.4,0.1-0.6  c0.2-0.4,0.8-0.5,1.1-0.3C41.5,60.3,41.6,60.9,41.4,61.3z M50.1,45.7c0.1,0.2,0,0.4-0.1,0.6c-0.1,0.3-0.4,0.4-0.7,0.4  c-0.1,0-0.3,0-0.4-0.1c-0.4-0.2-0.5-0.7-0.3-1.1c0.2-0.4,0.8-0.5,1.1-0.3C49.9,45.3,50,45.5,50.1,45.7z M36.7,49.4  c-0.1-0.2,0-0.4,0.1-0.6c0.2-0.4,0.8-0.5,1.1-0.3c0.4,0.2,0.5,0.7,0.3,1.1C38,49.8,37.8,50,37.5,50c-0.1,0-0.3,0-0.4-0.1  C36.9,49.7,36.7,49.6,36.7,49.4z M53.1,58.2c-0.2,0.3-0.4,0.4-0.7,0.4c-0.1,0-0.3,0-0.4-0.1c-0.2-0.1-0.3-0.3-0.4-0.5  c-0.1-0.2,0-0.4,0.1-0.6c0.2-0.4,0.8-0.5,1.1-0.3C53.2,57.3,53.4,57.8,53.1,58.2z M44.7,54.1l-5.1,5.4c0,0-0.1,0.1-0.1,0.1  c0,0-0.1,0-0.1-0.1c-0.1-0.1-0.1-0.2,0-0.3l5.1-5.4c-0.1-0.1-0.1-0.2-0.1-0.3v-6.5c0-0.3,0.3-0.6,0.6-0.6c0.3,0,0.6,0.3,0.6,0.6v5.5  l3.1,0c0.4,0,0.8,0.4,0.8,0.8c0,0.4-0.4,0.8-0.8,0.8c0,0,0,0,0,0l-3.5,0c-0.1,0-0.1,0-0.2,0c0,0,0,0,0,0  C44.8,54.1,44.8,54.1,44.7,54.1z M63.5,48.4v-4.9c0-2-0.4-3.8-1.2-5.6V25c0-1.1-0.9-2-2-2h-0.4C59.6,15.1,53,8.9,45,8.9  c-8,0-14.6,6.3-14.8,14.1h-0.5c-1.1,0-2,0.9-2,2v12.9c-0.8,1.7-1.2,3.6-1.2,5.6v4.9c-0.2,0.4-0.4,0.9-0.3,1.4l0.6,5  c0.1,1.1,1.1,1.9,2.2,1.9c0.1,0,0.2,0,0.3,0c1.1-0.1,1.4-0.2,1.5-0.2c0.2,0,0.3-0.1,0.4-0.1v10.5c0,0.3,0.3,0.6,0.6,0.6h1v10.8h0  v2.9h11.6h1.3h11.6v-4c0-0.1,0-0.1,0-0.2v-9.6h1c0.3,0,0.6-0.3,0.6-0.6V56.3c0.2,0.1,0.3,0.1,0.5,0.2c0.1,0,0.4,0.1,1.5,0.2  c0.1,0,0.2,0,0.2,0c1.1,0,2-0.8,2.2-1.9l0.6-5C63.9,49.3,63.8,48.8,63.5,48.4z M60.2,24.3c0.4,0,0.7,0.3,0.7,0.7v10.5  c-1-1.5-2.3-2.8-3.8-3.8c1.5-2.1,2.5-4.6,2.7-7.3H60.2z M31.6,22.9c0.2-7,6.1-12.7,13.4-12.7s13.2,5.7,13.4,12.7c0,0.1,0,0.3,0,0.4  c0,0.3,0,0.7,0,1c-0.2,2.4-1.1,4.7-2.4,6.5c-0.3,0.4-0.5,0.7-0.9,1.1c-2.5,2.7-6.1,4.5-10.1,4.5c-4,0-7.7-1.7-10.1-4.5  c-0.3-0.3-0.6-0.7-0.8-1.1c-1.4-1.9-2.2-4.1-2.4-6.5c0-0.3,0-0.7,0-1C31.6,23.2,31.6,23.1,31.6,22.9z M29.1,25  c0-0.4,0.3-0.7,0.7-0.7h0.5c0.2,2.7,1.2,5.2,2.7,7.3c-1.5,1.1-2.8,2.4-3.8,3.8V25z M27.8,43.5c0-4.3,2.3-8.2,5.9-10.8  c2.7,3.1,6.8,5.1,11.3,5.1c4.5,0,8.6-2,11.3-5.1c1.9,1.4,3.4,3.1,4.4,5c1,1.8,1.5,3.8,1.5,5.8v4c-0.1,0-0.1,0-0.2,0  c0,0-0.7-0.1-0.8-0.1c-0.2,0-0.4,0-0.5,0c-0.6,0-1.2,0.1-1.7,0.3v-7.3c0-0.3-0.3-0.6-0.6-0.6H31.7c-0.3,0-0.6,0.3-0.6,0.6v7.3  c-0.5-0.2-1.1-0.3-1.7-0.3c-0.2,0-0.4,0-0.5,0c-0.1,0-0.8,0.1-0.8,0.1c-0.1,0-0.2,0-0.3,0V43.5z M30.4,55.3L30.4,55.3  c-0.2,0-0.8,0.1-1.3,0.2c-0.1,0-0.2,0-0.3,0c-0.4-0.1-0.7-0.4-0.7-0.8l-0.5-4.5l-0.1-0.5c0-0.2,0-0.3,0.1-0.4  c0.1-0.3,0.4-0.6,0.8-0.6c0,0,0.2,0,0.4-0.1c0.2,0,0.3,0,0.3,0c0.1,0,0.3,0,0.4,0c1.8,0,3.3,1.3,3.5,3.1  C33.1,53.3,32,54.8,30.4,55.3z M44.3,79.8H34.1v-1.6h10.3V79.8z M39.2,70.8c-2.1,0-3.9,1-5.1,2.6v-6h10.2v5.9  C43.1,71.8,41.2,70.8,39.2,70.8z M44.2,76.6v0.2H34.1c0.3-2.6,2.5-4.7,5.1-4.7C41.7,72.1,43.8,74,44.2,76.6z M55.9,79.8H45.7v-1.6  h10.3V79.8z M50.8,72.1c2.6,0,4.8,2,5.1,4.7H45.7v-0.1C46,74.1,48.2,72.1,50.8,72.1z M45.7,73.3v-5.9h10.2v6c-1.2-1.6-3-2.6-5.1-2.6  C48.7,70.8,46.9,71.8,45.7,73.3z M57.6,66.2H32.3V55.6c1.2-1,1.9-2.5,1.7-4.2c-0.1-1.3-0.8-2.4-1.7-3.1v-7.4h25.3v7.4  c-0.9,0.8-1.6,1.8-1.7,3.1c-0.2,1.6,0.5,3.2,1.7,4.2V66.2z M62.6,50.2l-0.5,4.5c0,0.4-0.4,0.7-0.7,0.8c-0.1,0-0.2,0-0.3,0  c-0.5-0.1-1.1-0.2-1.3-0.2l0,0c-1.7-0.5-2.7-2-2.5-3.7c0.2-1.8,1.7-3.1,3.5-3.1c0.1,0,0.3,0,0.4,0c0,0,0.2,0,0.3,0  c0.2,0,0.4,0.1,0.4,0.1c0.4,0,0.7,0.3,0.8,0.6c0.1,0.1,0.1,0.3,0.1,0.4L62.6,50.2z"></path></svg>