<svg xmlns="http://www.w3.org/2000/svg" xmlns:xlink="http://www.w3.org/1999/xlink" version="1.1" x="0px" y="0px" viewBox="0 0 90 90" enable-background="new 0 0 90 90" xml:space="preserve"><path d="M72.1,67.7V59 M61.4,23.6c0-2.6,0.7-4.1,1.4-4.8c1.8-2.7,7.7-3,9.4-3c0.2,0,0.3,0,0.3,0c5.9,0,8.5,1.8,9.4,2.6l0.1,0.1  c0.1,0.1,0.2,0.2,0.2,0.2c0.6,0.8,1.4,2.2,1.4,4.8c0,6.1-4.9,11.1-11,11.1l0,0C66.4,34.8,61.4,29.8,61.4,23.6z M62.2,23.6  c0,5.7,4.6,10.3,10.2,10.3h0c5.6,0,10.2-4.6,10.2-10.3c0-2.5-0.7-3.8-1.2-4.3c0,0-0.1-0.1-0.2-0.2l-0.1-0.1c-0.6-0.6-3-2.4-8.8-2.4  c0,0-0.1,0-0.2,0c-1.2,0-7.2,0.1-8.8,2.6l0,0C63,19.8,62.2,21.1,62.2,23.6z M67.2,41.4H77v11.9h-9.9V41.4z M68,52.5h8.3V42.2H68  V52.5z M69.9,44.5h4.6v-0.8h-4.6V44.5z M69.9,46.4h4.6v-0.8h-4.6V46.4z M69.9,48.2h4.6v-0.8h-4.6V48.2z M73.5,50.5  c0,0.7-0.6,1.3-1.3,1.3c-0.7,0-1.3-0.6-1.3-1.3c0-0.7,0.6-1.3,1.3-1.3C72.9,49.1,73.5,49.7,73.5,50.5z M72.7,50.5  c0-0.3-0.2-0.5-0.5-0.5s-0.5,0.2-0.5,0.5c0,0.3,0.2,0.5,0.5,0.5S72.7,50.8,72.7,50.5z M88.9,41.9V58h-1.2c-0.3,2.5-2.2,4.4-4.7,4.7  v5.5h0v2.6H71.5v-2.1c-1,1.4-2.7,2.4-4.6,2.4c-2.9,0-5.4-2.3-5.7-5.3h0V48.2l-2.7,2.5l-8.2,3.1c-0.3,0.3-0.7,0.5-1.1,0.7l3.9,20.9  c0,0,0,0,0.1,0c0.3-0.2,0.7-0.3,1-0.4c0.7-0.3,1.3-0.5,1.9-0.7c1.1-0.4,1.9-0.6,1.9-0.6s-0.6,0.5-1.6,1.1c-0.5,0.3-1.1,0.6-1.7,1  c-0.3,0.2-0.7,0.3-1,0.5c-0.1,0-0.1,0.1-0.2,0.1c0.1,0,0.1,0.1,0.2,0.1c0.3,0.2,0.7,0.3,1,0.5c0.6,0.3,1.2,0.7,1.7,1  c1,0.6,1.6,1.1,1.6,1.1s-0.8-0.2-1.9-0.6c-0.6-0.2-1.2-0.4-1.9-0.7c-0.3-0.1-0.7-0.3-1-0.4c-0.3-0.1-0.5-0.2-0.8-0.3  c0,0-0.1,0-0.1,0c0,0-0.1,0-0.1,0c-0.3,0.1-0.5,0.2-0.8,0.3c-0.3,0.2-0.7,0.3-1,0.4c-0.7,0.3-1.3,0.5-1.9,0.7  c-1.1,0.4-1.9,0.6-1.9,0.6s0.6-0.5,1.6-1.1c0.5-0.3,1.1-0.6,1.7-1c0.3-0.2,0.7-0.3,1-0.5c0.1,0,0.1-0.1,0.2-0.1  c-0.1,0-0.1-0.1-0.2-0.1c-0.3-0.2-0.7-0.3-1-0.5c-0.6-0.3-1.2-0.7-1.7-1c-1-0.6-1.6-1.1-1.6-1.1s0.8,0.2,1.9,0.6  c0.6,0.2,1.2,0.4,1.9,0.7c0.3,0.1,0.6,0.2,0.9,0.4l-3.9-20.5c-0.3,0-0.7,0-0.7,0c-0.5,0-1-0.2-1.3-0.6c-0.3-0.4-0.5-0.9-0.5-1.4  l0.2-4.1c0-0.7,0.4-1.3,0.9-1.6l-1.3-6.6c-1.3,0.9-2.6,1.7-4,2.4c-1.6,0.8-3.2,1.5-4.8,2c-0.8,0.3-1.7,0.5-2.6,0.7  c-0.9,0.2-1.7,0.3-2.6,0.3c-0.9,0.1-1.8,0-2.7-0.1c-0.9-0.1-1.8-0.3-2.6-0.6c-0.8-0.3-1.7-0.5-2.5-0.8c-0.8-0.2-1.7-0.5-2.5-0.7  c-0.8-0.2-1.7-0.4-2.5-0.6c-0.4-0.1-0.8-0.1-1.3-0.2c-0.4-0.1-0.8-0.1-1.3-0.2c-0.4-0.1-0.8-0.1-1.3-0.1c-0.4,0-0.8-0.1-1.3,0  c-0.4,0-0.8,0-1.3,0c-0.2,0-0.4,0-0.6,0.1l-0.6,0.1c-0.2,0-0.4,0.1-0.6,0.1c-0.2,0.1-0.4,0.1-0.6,0.2c-0.4,0.1-0.8,0.3-1.1,0.4  c-0.7,0.3-1.4,0.8-2,1.3l-0.9,0.8l-0.2-1.1l-1-6.2l-1-6.2l-1-6.2l-0.5-3.1c-0.2-1-0.3-2.1-0.4-3.1l0-0.3l0.2-0.2l0.6-0.4  c0.2-0.1,0.4-0.3,0.6-0.4c0.2-0.1,0.4-0.2,0.6-0.3c0.2-0.1,0.4-0.2,0.6-0.3c0.4-0.2,0.9-0.3,1.3-0.4c0.2-0.1,0.4-0.1,0.7-0.1L6,17.1  l0.3,0L7.1,17l0.7,0c0.5,0,0.9,0,1.3,0c0.4,0,0.9,0.1,1.3,0.1c0.4,0,0.9,0.1,1.3,0.2l0.7,0.1l0.7,0.1c0.4,0.1,0.9,0.2,1.3,0.3  l1.3,0.3l1.3,0.4c0.9,0.2,1.7,0.5,2.5,0.8c0.4,0.1,0.8,0.3,1.3,0.4l1.2,0.4c0.4,0.1,0.8,0.3,1.2,0.3c0.4,0.1,0.8,0.2,1.3,0.2  c0.4,0,0.9,0.1,1.3,0.1c0.4,0,0.9,0,1.3,0c0.4,0,0.9-0.1,1.3-0.1c0.4-0.1,0.8-0.1,1.3-0.2c0.4-0.1,0.8-0.2,1.2-0.3  c0.4-0.1,0.8-0.3,1.2-0.4c1.6-0.6,3.2-1.3,4.7-2.1c0.7-0.4,1.5-0.9,2.2-1.3c0.4-0.2,0.7-0.5,1-0.7c0.2-0.2,0.4-0.3,0.6-0.5l-0.2-1.2  c-0.1-0.5,0.2-0.9,0.7-1c0.5-0.1,0.9,0.2,1,0.7l3,18.8c0,0,0,0,0,0L47.8,47c0.4,0,0.8,0.1,1.2,0.2l5.1-4.6l3-5.8V25.4  c0-1,0.8-1.8,1.8-1.8h0.4c0.2-6.9,6-12.5,13.1-12.5c7.1,0,12.9,5.6,13.1,12.5H86c1,0,1.8,0.8,1.8,1.8v11.5  C88.5,38.4,88.9,40.1,88.9,41.9z M85.5,24.8c-0.2,2.4-1,4.6-2.4,6.5c1.3,1,2.5,2.1,3.4,3.4v-9.3c0-0.3-0.3-0.6-0.6-0.6H85.5z   M60.5,24c0,6.4,5.3,11.6,11.9,11.6c6.6,0,11.9-5.2,11.9-11.6c0-6.4-5.3-11.6-11.9-11.6C65.9,12.4,60.5,17.6,60.5,24z M58.3,34.8  c0.9-1.3,2-2.4,3.4-3.4c-1.3-1.9-2.2-4.1-2.4-6.5h-0.4c-0.3,0-0.6,0.3-0.6,0.6V34.8z M50.3,51c0.1-1.5-1.1-2.7-2.6-2.8  c-0.1,0-0.6,0-0.6,0c0,0,0,0,0,0c-0.4,0-0.7,0.3-0.7,0.6l-0.2,4.1c0,0.2,0.1,0.3,0.2,0.5c0.1,0.1,0.3,0.2,0.4,0.2c0,0,0.2,0,0.4,0  c0.1,0,0.1,0,0.2,0c0,0,0,0,0,0c0,0,0.1,0,0.1,0c0,0,0,0,0,0c0,0,0.1,0,0.1,0c0,0,0,0,0,0c0,0,0.1,0,0.1,0l0,0  c0.2,0,0.4-0.1,0.6-0.1c0,0,0,0,0,0c0.2-0.1,0.3-0.1,0.5-0.2C49.8,52.7,50.3,51.9,50.3,51z M81.8,64v-5c-0.3-2.3-2.3-4.1-4.6-4.1  c-2.3,0-4.3,1.8-4.6,4.1v5.1c1-1.5,2.7-2.4,4.6-2.4C79.1,61.7,80.7,62.6,81.8,64z M77.2,62.9c-2.3,0-4.2,1.8-4.5,4.1h9  C81.5,64.7,79.6,62.9,77.2,62.9z M81.8,68.3h-9.1v1.4h9.1V68.3z M86.4,58.2H83v3.4C84.7,61.3,86.1,59.9,86.4,58.2z M87.7,41.9  c0-3.8-2-7.3-5.2-9.6c-2.4,2.8-6,4.5-10,4.5c-4,0-7.6-1.8-10-4.5c-1.7,1.3-3.1,2.8-4,4.6c0,0,0,0.1,0,0.1l-3.7,6.8l-4.7,4  c1,0.8,1.6,2,1.6,3.3c0,0.6-0.2,1.1-0.4,1.5l6.8-3.1l3.2-3.2v0h1.2v18.5v0.9c0.3,2.3,2.2,4.1,4.5,4.1c2.3,0,4.2-1.8,4.5-4.1h0V59  c0.3-3,2.8-5.3,5.7-5.3c1.9,0,3.5,0.9,4.6,2.4V46H83v10.8h4.7V41.9z"></path></svg>