<svg xmlns="http://www.w3.org/2000/svg" xmlns:xlink="http://www.w3.org/1999/xlink" version="1.1" x="0px" y="0px" viewBox="0 0 90 90" enable-background="new 0 0 90 90" xml:space="preserve"><path d="M47.7,33.1h5.2c0.4,0,0.7,0.3,0.7,0.7s-0.3,0.7-0.7,0.7h-5.2c-0.4,0-0.7-0.3-0.7-0.7S47.3,33.1,47.7,33.1z M52.9,35.2h-5.2  c-0.4,0-0.7,0.3-0.7,0.7s0.3,0.7,0.7,0.7h5.2c0.4,0,0.7-0.3,0.7-0.7S53.2,35.2,52.9,35.2z M52.9,37.2h-5.2c-0.4,0-0.7,0.3-0.7,0.7  c0,0.4,0.3,0.7,0.7,0.7h5.2c0.4,0,0.7-0.3,0.7-0.7C53.5,37.5,53.2,37.2,52.9,37.2z M70.9,62.6L69.3,63c-0.1,0-6.1,2.6-7.7,5.5  c-0.4,0.8-0.5,1.6-0.2,2.6l0.6,1.5l-1.4-0.9c0,0-4.9-3.3-8.1-2.1c-0.9,0.4-1.6,1.1-2,2.1l-0.2,0.5L49.8,72c-0.2-0.1-0.3-0.2-0.8-0.7  c-0.6-0.6-1.7-1.6-3.1-2.6v12H27.5v0h-8.4v-3.9c0.1-3.5,3-6.3,6.4-6.3c0,0,0,0,0.1,0V41.7c0-2.1,0.6-4,1.7-5.7  c-3.1-1.8-5.4-4.5-6.6-7.8c-1.3-3.6-1.1-7.5,0.6-11c2.4-4.9,7.3-7.9,12.9-7.9c2.3,0,4.5,0.5,6.5,1.5c3.5,1.7,6.2,4.7,7.5,8.3  c0.8,2.3,1,4.7,0.7,7.1h4.8c1.4,0,2.5,1.1,2.5,2.5v21.3c4.3,2.4,8.6,4.5,12.2,5.6L70,56l-1.5,0.6c0,0-2.5,1-4.5,2.5  c1.8,1.1,3.5,2.1,5.1,2.8L70.9,62.6z M56,51.1v2.3c2.3,1.8,4.7,3.5,7.1,5c1.3-1,2.7-1.8,3.7-2.3C63.5,55,59.8,53.2,56,51.1z   M48.5,27.5c-0.2,0.9-0.5,1.7-0.9,2.6c-0.4,0.9-1,1.8-1.6,2.6v9.1v3.4c2.5,2.2,5.6,4.8,8.8,7.3V28.6c0-0.6-0.5-1.1-1.1-1.1H48.5z   M44.6,51.3l-6-10.9c-0.2-0.4-0.5-0.7-0.9-1c-1.1-0.5-2.1-0.6-2.9-0.5c-0.2,0.1-0.3,0.1-0.5,0.2c-1.5,0.8-2.1,2.8-1.2,4.3l6,10.9  L44.6,51.3z M43.9,53.7l-2.8,1.6c1.1,1.3,2.8,1.8,4.4,1.3L43.9,53.7z M44.6,43.9v-2.2c0-2.2-0.8-4.3-2.1-6c-1.5,1-3.3,1.7-5.1,2  c0.7,0.3,1.4,0.7,1.9,1.3C39.8,39.5,41.8,41.4,44.6,43.9z M44.6,34c-0.3,0.3-0.7,0.6-1,0.9c0.4,0.5,0.7,1,1,1.6V34z M23.3,23.9  c1.4,0,3.5-0.8,5.1-2c-1.9-0.9-3.3-2.1-1.6-2.6c2.8-0.8,2.8-2.2,2.7-3.1c-1.3-1.5-3.4-2-4.1-2.2c-1.1,1.1-4.6,5.5-3.2,9.5  C22.3,23.8,23.1,23.9,23.3,23.9z M28.7,35.2c1.9,0.9,3.9,1.4,5.9,1.4c5,0,9.5-2.8,11.7-7.2c1.5-3.1,1.7-6.6,0.5-9.9  c-1.2-3.3-3.6-6-6.8-7.5c-1.9-0.9-3.9-1.4-5.9-1.4c-1.7,0-3.4,0.3-4.9,0.9c0.3,0.1,0.5,0.2,0.5,0.2c5.9,2.9,7.5,5.9,7.9,7  c0,0,0,0.1,0,0.1c0.1,0.2,0.1,0.3,0.1,0.3c0.2,0.7,0.4,2.4-1,5.2c-2.5,5.1-8,7.6-13.2,6.5C24.8,32.7,26.6,34.2,28.7,35.2z   M23.5,77.8h-2.8v1.7h2.8V77.8z M23.7,76.5c0.2-1.6,0.8-3,1.9-4c0.2-0.2,0.4-0.4,0.6-0.5c-0.2,0-0.4-0.1-0.6-0.1c0,0,0,0-0.1,0  c-2.6,0-4.7,2-5,4.6H23.7z M25.6,74.7c-0.3,0.5-0.5,1.1-0.5,1.8h6.8c0,0.2,0,0,0,0h3.2c-0.2-1.9-1.5-3.6-3.2-4.3  c-0.3-0.1-0.6-0.2-1-0.3c-0.3-0.1-0.6-0.1-0.9-0.1c0,0-0.1,0-0.1,0c-0.2,0-0.4,0-0.6,0.1c-0.6,0.1-1.1,0.3-1.6,0.5  c-0.3,0.2-0.6,0.4-0.9,0.6C26.4,73.5,25.9,74,25.6,74.7z M44.6,77.8H25v1.7h19.6V77.8z M44.6,67.9c-0.4-0.2-0.7-0.4-1.1-0.6  c-2.3-1-4.5-1.3-6.6-0.8l-0.6,0.1L36.2,66c0-0.2-2.4-16.7-4.5-22.5c-0.1-0.1-0.1-0.3-0.2-0.4c0-0.1-0.1-0.2-0.1-0.3l0-0.1l0-0.1  c0,0,0-0.1,0-0.2c-0.2-1.8,0.6-3.6,2.3-4.5c0.1,0,0.1,0,0.2-0.1c-1.9-0.1-3.7-0.5-5.4-1.3c-1,1.5-1.5,3.3-1.5,5.1v29  c0.3,0.1,0.6,0.2,0.9,0.3c0.7-0.3,1.4-0.4,2.2-0.4V59.8h1.9v11c2.4,0.8,4.3,3,4.5,5.7h8.1V67.9z M67.7,62.3  c-9.1-4.6-21.2-15.1-26.5-20.1l5.4,9.7l-1.2,0.6l2.6,4.8l-0.8,0.4c-2.8,1.4-6.1,0.5-7.8-1.9l-0.7,0.4L34,47.9  c1.5,6.3,2.8,15.1,3.1,17.4c2.2-0.4,4.5-0.1,6.8,1c2.8,1.3,4.9,3.3,5.9,4.3c0,0,0.1,0.1,0.1,0.1c0.6-1,1.3-1.7,2.3-2.1  c2.7-1.1,6.2,0.6,8,1.5c0-0.7,0.1-1.5,0.5-2.2C62,65.5,65.7,63,67.7,62.3z"></path></svg>