<svg xmlns="http://www.w3.org/2000/svg" xmlns:xlink="http://www.w3.org/1999/xlink" version="1.1" x="0px" y="0px" viewBox="0 0 90 90" enable-background="new 0 0 90 90" xml:space="preserve"><path d="M70.9,48.4H60.2v12.9h10.6V48.4z M70.4,60.9h-9.7V48.9h9.7V60.9z M68.3,51.5h-5.2V51h5.2V51.5z M68.3,53.6h-5.2v-0.4h5.2  V53.6z M68.3,55.6h-5.2v-0.4h5.2V55.6z M65.6,57.3c0.6,0,1.1,0.5,1.1,1.1s-0.5,1.1-1.1,1.1s-1.1-0.5-1.1-1.1S65,57.3,65.6,57.3z   M34.1,51.4c-0.1,0.5,0,1.1,0.4,1.5l2.7,3.7c0.5,0.8,1.5,1,2.4,0.7l10.8,1.4l3-2.8v26.3c0,0.1,0,0.1,0,0.2v4h11.6h1.3h11.6v-2.9h0  v-11c2.8-0.3,5-2.6,5.3-5.4h1.4V48.7c0-2-0.4-3.9-1.2-5.6V30.3c0-1.1-0.9-2-2-2h-0.5c0,0.1,0,0.3,0,0.4c0,0.3,0,0.7,0,1h0.5  c0.4,0,0.7,0.3,0.7,0.7v10.5c-1-1.4-2.3-2.7-3.8-3.8c1.7-2.3,2.7-5.2,2.7-8.3c0-7.9-6.6-14.4-14.8-14.4c-8,0-14.5,6.3-14.8,14h-0.4  c-1.1,0-2,0.9-2,2V43l-3.3,6.5l-4.8,0.1c-1.2-0.9-2.7-1.1-4.1-0.6L5.6,3.7L35.1,50c-0.1,0.1-0.1,0.1-0.1,0.1  C34.5,50.4,34.2,50.9,34.1,51.4z M51.2,29.6C51.2,29.6,51.2,29.6,51.2,29.6c0.2,2.7,1.1,5.2,2.7,7.3c-1.5,1.1-2.8,2.4-3.8,3.8V30.3  c0-0.4,0.3-0.7,0.7-0.7H51.2z M62.1,20.4c0.1,0,0.2,0,0.2,0c5.5,0,7.8,2.1,8.3,2.7l0,0.1c0.1,0.1,0.1,0.2,0.1,0.2  c0.4,0.6,1.1,2.1,1.1,4.9c0,6.4-4.3,11.6-9.7,11.6h0c-5.3,0-9.7-5.2-9.7-11.6c0-1,0.1-1.7,0.2-2.4c0.1-0.7,0.3-1.3,0.6-1.9  c0.1-0.3,0.2-0.5,0.3-0.6l0,0C55.3,20.5,61,20.4,62.1,20.4z M65.9,41.7c-2,0-3.8-0.4-5.5-1.2c0.6,0.1,1.3,0.2,1.9,0.2h0  c5.8,0,10.5-5.6,10.5-12.5c0-2.9-0.7-4.5-1.3-5.4c0,0-0.1-0.1-0.2-0.3l0-0.1c-0.8-0.9-3.3-3-9-3c0,0-0.1,0-0.2,0  c-1.2,0-4.7,0.1-7,1.5c2.4-3.3,6.4-5.4,10.9-5.4c7.4,0,13.4,5.8,13.4,13S73.3,41.7,65.9,41.7z M77.8,67.2h3.9  c-0.4,2-1.9,3.5-3.9,3.8V67.2z M66.2,83.3h10.2v1.6H66.2V83.3z M66.3,81.9c0.3-2.6,2.5-4.7,5.1-4.7c2.6,0,4.8,2,5.1,4.7H66.3z   M54.6,83.3h10.2v1.6H54.6V83.3z M54.7,81.9c0.3-2.6,2.5-4.7,5.1-4.7c2.6,0,4.8,2,5.1,4.7H54.7z M41,56.3c0.1,0,0.1-0.1,0.1-0.1  c1.5-1.5,1.7-3.8,0.5-5.5l4.4,0.2l4.1-7.6c0,0,0-0.1,0.1-0.1c1-2,2.6-3.8,4.5-5.2c2.7,3.1,6.7,5.1,11.2,5.1c4.5,0,8.5-2,11.2-5.1  c3.6,2.6,5.9,6.5,5.9,10.8v16.8h-5.3V53.8h-1.3v24.7c-1.2-1.6-3-2.6-5.1-2.6c-2.1,0-3.9,1-5.1,2.6v-9.7h-1.3v9.7  c-1.2-1.6-3-2.6-5.1-2.6c-2.1,0-3.9,1-5.1,2.6V53.8h-1.3v0l-3.6,3.5L41,56.3z M35.2,51.6c0-0.2,0.2-0.4,0.4-0.6c0,0,0.5-0.4,0.6-0.4  c1.4-1,3.4-0.7,4.4,0.7c0.9,1.3,0.8,3-0.3,4.1l0,0c-0.1,0.1-0.6,0.5-1,0.7c0,0,0,0-0.1,0c-0.4,0.2-0.9,0.1-1.1-0.3l-2.7-3.7  C35.3,52,35.2,51.8,35.2,51.6z"></path></svg>